<mxfile host="app.diagrams.net" modified="2023-02-10T02:06:26.207Z" agent="5.0 (Windows)" etag="9ip1Wvg1jaoST2Bo9YfR" version="20.8.19" type="github">
  <diagram name="Page-1" id="OW0WnlmlemU2NI4hKQ-y">
    <mxGraphModel dx="954" dy="642" grid="1" gridSize="10" guides="1" tooltips="1" connect="1" arrows="1" fold="1" page="1" pageScale="1" pageWidth="850" pageHeight="1100" math="0" shadow="0">
      <root>
        <mxCell id="0" />
        <mxCell id="1" parent="0" />
        <mxCell id="N3PbGnx-wxN7p8F93Ezw-5" style="edgeStyle=orthogonalEdgeStyle;rounded=0;orthogonalLoop=1;jettySize=auto;html=1;exitX=0.5;exitY=1;exitDx=0;exitDy=0;entryX=0.5;entryY=0;entryDx=0;entryDy=0;" edge="1" parent="1" source="N3PbGnx-wxN7p8F93Ezw-1" target="N3PbGnx-wxN7p8F93Ezw-2">
          <mxGeometry relative="1" as="geometry" />
        </mxCell>
        <mxCell id="N3PbGnx-wxN7p8F93Ezw-1" value="Met Sly" style="rounded=1;whiteSpace=wrap;html=1;" vertex="1" parent="1">
          <mxGeometry x="170" y="70" width="120" height="60" as="geometry" />
        </mxCell>
        <mxCell id="N3PbGnx-wxN7p8F93Ezw-6" style="edgeStyle=orthogonalEdgeStyle;rounded=0;orthogonalLoop=1;jettySize=auto;html=1;exitX=0.5;exitY=1;exitDx=0;exitDy=0;entryX=0.5;entryY=0;entryDx=0;entryDy=0;" edge="1" parent="1" source="N3PbGnx-wxN7p8F93Ezw-2" target="N3PbGnx-wxN7p8F93Ezw-3">
          <mxGeometry relative="1" as="geometry" />
        </mxCell>
        <mxCell id="N3PbGnx-wxN7p8F93Ezw-2" value="Completed Base Job" style="rounded=1;whiteSpace=wrap;html=1;" vertex="1" parent="1">
          <mxGeometry x="170" y="160" width="120" height="60" as="geometry" />
        </mxCell>
        <mxCell id="N3PbGnx-wxN7p8F93Ezw-7" style="edgeStyle=orthogonalEdgeStyle;rounded=0;orthogonalLoop=1;jettySize=auto;html=1;exitX=0.5;exitY=1;exitDx=0;exitDy=0;entryX=0.5;entryY=0;entryDx=0;entryDy=0;" edge="1" parent="1" source="N3PbGnx-wxN7p8F93Ezw-3" target="N3PbGnx-wxN7p8F93Ezw-4">
          <mxGeometry relative="1" as="geometry" />
        </mxCell>
        <mxCell id="N3PbGnx-wxN7p8F93Ezw-3" value="Met Ghost" style="rounded=1;whiteSpace=wrap;html=1;" vertex="1" parent="1">
          <mxGeometry x="170" y="250" width="120" height="60" as="geometry" />
        </mxCell>
        <mxCell id="N3PbGnx-wxN7p8F93Ezw-4" value="Stole the Jelly Donut" style="rounded=1;whiteSpace=wrap;html=1;" vertex="1" parent="1">
          <mxGeometry x="170" y="340" width="120" height="60" as="geometry" />
        </mxCell>
      </root>
    </mxGraphModel>
  </diagram>
</mxfile>
